<?xml version="1.0" encoding="UTF-8"?>
<svg id="Layer_2" data-name="Layer 2" xmlns="http://www.w3.org/2000/svg" viewBox="0 0 1024 1024">
  <defs>
    <style>
      .cls-1 {
        fill: #9ca4e0;
      }

      .cls-2 {
        fill: #a7ced8;
      }

      .cls-3 {
        fill: #a3bddc;
      }

      .cls-4 {
        fill: #9ca1e0;
      }

      .cls-5 {
        fill: #a9d6d7;
      }

      .cls-6 {
        fill: #a6c9d9;
      }

      .cls-7 {
        fill: #ace2d3;
      }

      .cls-8 {
        fill: #aad9d6;
      }

      .cls-9 {
        fill: #a5c7da;
      }

      .cls-10 {
        fill: #9ba0e0;
      }

      .cls-11 {
        fill: #a9d6d6;
      }

      .cls-12 {
        fill: #9fafde;
      }

      .cls-13 {
        fill: #a1b5dd;
      }

      .cls-14 {
        fill: #a2b9dd;
      }

      .cls-15 {
        fill: #9da4e0;
      }

      .cls-16 {
        fill: #a9d5d7;
      }

      .cls-17 {
        fill: #a4c1db;
      }

      .cls-18 {
        fill: #a7cfd8;
      }

      .cls-19 {
        fill: #ace4d2;
      }

      .cls-20 {
        fill: #abe0d4;
      }

      .cls-21 {
        fill: #9eacdf;
      }

      .cls-22 {
        fill: #a3bedc;
      }

      .cls-23 {
        fill: #a0b4de;
      }

      .cls-24 {
        fill: #a5c6da;
      }

      .cls-25 {
        fill: #a0b2de;
      }

      .cls-26 {
        fill: #a7cdd9;
      }

      .cls-27 {
        fill: #a2bbdc;
      }

      .cls-28 {
        fill: #a0b1de;
      }

      .cls-29 {
        fill: #9eabdf;
      }

      .cls-30 {
        fill: #abddd4;
      }

      .cls-31 {
        fill: #aadad5;
      }

      .cls-32 {
        fill: #9da7e0;
      }

      .cls-33 {
        fill: #a0b3de;
      }

      .cls-34 {
        fill: #9faddf;
      }

      .cls-35 {
        fill: #9faede;
      }

      .cls-36 {
        fill: #ace4d3;
      }

      .cls-37 {
        fill: #a6cbd9;
      }

      .cls-38 {
        fill: #9fb0de;
      }

      .cls-39 {
        fill: #9da8df;
      }

      .cls-40 {
        fill: #a7d0d8;
      }

      .cls-41 {
        fill: #a8d4d7;
      }

      .cls-42 {
        fill: #a3bfdc;
      }

      .cls-43 {
        fill: #a4c4da;
      }

      .cls-44 {
        fill: #a4c2db;
      }

      .cls-45 {
        fill: #a3c0db;
      }

      .cls-46 {
        fill: #abdfd4;
      }

      .cls-47 {
        fill: #a1b8dd;
      }

      .cls-48 {
        fill: #a5c5da;
      }

      .cls-49 {
        fill: #aadbd5;
      }

      .cls-50 {
        fill: #a5c8da;
      }

      .cls-51 {
        fill: #a2bcdc;
      }

      .cls-52 {
        fill: #a8d2d7;
      }

      .cls-53 {
        fill: #a2badd;
      }

      .cls-54 {
        fill: #9eaadf;
      }

      .cls-55 {
        fill: #a9d8d6;
      }

      .cls-56 {
        fill: #a1b6dd;
      }

      .cls-57 {
        fill: #a2badc;
      }

      .cls-58 {
        fill: #aadcd5;
      }

      .cls-59 {
        fill: #a1b4dd;
      }

      .cls-60 {
        fill: #ade5d2;
      }

      .cls-61 {
        fill: #a6cad9;
      }

      .cls-62 {
        fill: #9faedf;
      }

      .cls-63 {
        fill: #9b9fe1;
      }

      .cls-64 {
        fill: #a8d3d7;
      }

      .cls-65 {
        fill: #abddd5;
      }

      .cls-66 {
        fill: #9b9ee1;
      }

      .cls-67 {
        fill: #ace3d3;
      }

      .cls-68 {
        fill: #a9d7d6;
      }

      .cls-69 {
        fill: #9da6e0;
      }

      .cls-70 {
        fill: #9b9de1;
      }

      .cls-71 {
        fill: #a4c3db;
      }

      .cls-72 {
        fill: #a1b7dd;
      }

      .cls-73 {
        fill: #a6ccd9;
      }

      .cls-74 {
        fill: #a8d1d8;
      }

      .cls-75 {
        fill: #9da5e0;
      }

      .cls-76 {
        fill: #9ea9df;
      }

      .cls-77 {
        fill: #abded4;
      }

      .cls-78 {
        fill: #9ca2e0;
      }

      .cls-79 {
        fill: #ace1d3;
      }
    </style>
  </defs>
  <g id="Layer_1-2" data-name="Layer 1">
    <g>
      <rect width="1024" height="1024"/>
      <path class="cls-67" d="M729.5,935c-9.09,4.67-18.18,8.83-27.5,13l-4.61,1h-368.49c-2.17.06-4.45-.02-6.39-1-9.64-3.47-18.88-8.32-28-13l.16-.5h434.49l.35.5Z"/>
      <path class="cls-4" d="M747.5,98c6.67,3.86,13.03,7.84,19.5,12l-.16.5h-170.54s-2.3.5-2.3.5c-1.91.13-3.84.2-5.74-.08-25.76-3.84-49.31-6.94-75.52-6.95-26.23,0-49.73,3.08-75.51,6.94-1.9.28-3.83.22-5.74.09l-2.3-.51c-57.87.2-115.18.11-171.92-.25l.22-.74c6.2-3.91,12.5-8.12,19-11.5l2.49-.78c154.82-.27,309.7-.34,464.66-.22l3.86,1Z"/>
      <path class="cls-63" d="M331,71.5l5.04-1h353.25l4.22,1c6.6,2.55,13.36,5.38,19.84,8.41,2.93,1.37,5.94,2.84,8.66,4.59l-.48,1h-418.89l-.63-1c9.29-5.02,19.12-9.44,29-13Z"/>
      <path class="cls-10" d="M302,84.5h420c7.74,2.99,14.81,7.43,22,11.5l-.48,1h-462.39l-.63-1,10.49-6.26,11.01-5.24Z"/>
      <path class="cls-67" d="M702,948c-12.15,5.44-22.32,9.66-35,14l-5.46,1h-299.09l-5.46-1c-11.28-3.9-21.6-8.02-32.55-12.71-.75-.32-1.58-.42-1.95-1.29h379.5Z"/>
      <path class="cls-79" d="M749.5,924c-5.97,3.45-11.85,6.79-18,10l-2.18.5h-434.41l-1.91-.5c-6.44-3.34-12.21-6.34-18.5-10l.48-1h473.89l.63,1Z"/>
      <path class="cls-70" d="M658.5,58.5c-.28.95-.72.95-1,0h-290.5c-.28.95-.72.95-1,0,12.36-4.34,25.1-7.93,37.9-10.85,72.5-16.58,151.38-16.24,223.61,1.6,10.46,2.58,20.73,6.04,31,9.25Z"/>
      <path class="cls-20" d="M365.5,893.5c1.76.13,3.53.29,5.22.84,25.27,8.21,48.59,15.59,74.93,20.15,15.59,2.7,30.59,4.04,45.2,4.96l.65,1.05c-.04.4-.2,1-.48,1-69.06.33-140.24.49-209.7,0-4.36.44-8.47.1-12.33-1-14.5-8.71-26.97-16.93-40.5-27l.48-1h131.65l4.88,1Z"/>
      <path class="cls-66" d="M366,58.5c.33-.04.67.02,1,0h290.5c.33.02.67-.04,1,0,5.58.63,20.56,6.81,26.64,9.11,2.76,1.04,5.78,2.44,8.36,3.89h-362.5c9.58-4.1,20.08-8.61,30.02-11.73,1.56-.49,3.37-1.1,4.98-1.27Z"/>
      <path class="cls-20" d="M618,907l6.19-1h152.19l.62,1c-7.22,4.87-14.03,9.05-21.5,13.5l-3.42,1h-218.95l-.63-1,.27-1.02c27.03-1.18,55.63-5.97,82.95-12.6l2.28.12Z"/>
      <path class="cls-68" d="M907,777c-6.12,9.1-11.76,16.85-18.5,25.5l-1.85,1h-87.04l-.62-1c-.46-.09-.76-.34-.88-.77,6.94-7.51,14.32-15.46,21.56-23.01.36-.38.81-.68,1.28-.96s1.01-.54,1.53-.76l1.83-1h82.06l.61,1Z"/>
      <path class="cls-21" d="M891,224c6.09,7.99,11.93,16.12,17.5,24.5l-.35,1h-81.81l-1.84-1c-.52-.22-1.03-.45-1.51-.74s-.91-.58-1.26-.96c-6.11-6.58-12.22-13.24-18.27-19.88-.35-.38-.61-.86-.85-1.34s-.44-1.03-.61-1.57l.35-1h86.82l1.83,1Z"/>
      <path class="cls-21" d="M222.5,224c-.22.59-.46,1.16-.75,1.7s-.6,1.05-1,1.48c-6.02,6.47-12.13,12.94-18.22,19.34-.84.88-1.95,1.44-3.03,1.98l-1.83,1h-81.06l-.61-1c5.82-8.73,11.14-16.15,17.5-24.5l1.83-1h86.55l.61,1Z"/>
      <path class="cls-19" d="M650,967.5c-10.35,3.97-21.19,6.56-32,9l-9.34,1h-190.58l-11.08-1c-10.98-2.41-22.01-4.91-32.5-9l.48-1h274.39l.63,1Z"/>
      <path class="cls-64" d="M937,726c-4.51,8.91-8.97,16.88-14,25.5l-1.36,1h-78.02l-.62-1c.33-1.26.68-2.56,1.41-3.66,4.19-6.39,8.46-12.82,12.74-19.14.74-1.09,1.81-1.91,2.85-2.7l1.36-1h75.02l.62,1Z"/>
      <path class="cls-78" d="M768.5,111c6.45,4.18,12.23,8.02,18.5,12.5-.04.4-.2,1-.48,1-43.06.33-87.4.38-130.79,0-5.17.09-10.28.16-15.24-1l-2.28-.04c-14.12-3.67-28.2-7.43-42.26-11.28l-1.96-1.18,2.44-.51h170.19s1.88.51,1.88.51Z"/>
      <path class="cls-46" d="M658.5,893.5l4.85-1h132.03l.62,1c-6.23,4.65-12.55,9.15-19,13.5h-159l.12-1.1c13.16-4.39,26.32-8.77,39.49-13.16l.89.76Z"/>
      <path class="cls-38" d="M924,273.5c4.82,8.33,9.18,16.4,13.5,25l-.35,1h-74.8l-1.36-1c-1.03-.77-2.09-1.58-2.83-2.65-4.29-6.19-8.59-12.47-12.78-18.72-.73-1.08-1.06-2.38-1.39-3.63l.35-1h77.81c.68.02,1.3.36,1.84,1Z"/>
      <path class="cls-78" d="M431.5,111c-1.3.76-2.64,1.5-4.12,1.87-13.06,3.26-25.91,6.63-38.89,10.22-1.46.4-2.99.43-4.5.41h-.5l-144.65-.5-.35-.5c1.66-1.61,15.46-11.23,17-11.5l1.88-.72c57.19.31,114.42.38,171.69.2l2.44.51Z"/>
      <path class="cls-32" d="M301,162c-.88,1.09-1.78,2.21-2.96,2.99-6.83,4.53-13.76,9.04-20.65,13.48-1.18.76-2.55,1.16-3.89,1.53l-2.68,1h-99.2l-.62-1c6-6.15,12.18-12.16,18.5-18l2.41-1h108.47l.62,1Z"/>
      <path class="cls-23" d="M949,323c3.61,8.26,6.91,16.53,10,25l-.35,1h-71.2l-.95-1c-1.05-1.17-2.09-2.38-2.79-3.79-2.73-5.49-5.42-11.09-8-16.65-.67-1.43-.95-3.01-1.2-4.56l.35-1h73.2l.95,1Z"/>
      <path class="cls-45" d="M987,476.5c.28,3.76,1,8.78,1,12.25v10.5c0,1.21.47,2.78.5,4.25l-.35,1h-67.04l-.61-1c-1.52-1.07-2.15-6.71-.5-7.75-.39-.05-.95-.15-1-.45-.11-.6-.13-7.4,0-7.84l1-.72-1.02-.73-.9-8.58.92-.93.35-1h67.04l.61,1Z"/>
      <path class="cls-17" d="M104,490c1.54.38,1,3.89-.5,4.25.39.05.97.17,1,.44.23,2.38.23,7.45,0,9.85l-1,.71c1.6,2.95,1.03,8.74-.5,11.75l-2.89.7c-16.07.11-32,.32-47.79.62l-.82-.82c-5.19-.27-10.52-.44-16-.5-.08-8.97.59-18.2,1-27l.35-1h66.54l.61,1Z"/>
      <path class="cls-1" d="M237.5,123.5l1.16-.5,144.84.5h.5l-1.44,1.19c-10.22,4.46-20.62,8.41-31.18,11.87l-1.88-.06-4.06,1h-124.82l-.62-1c5.38-4.73,11.24-9.37,17.5-13Z"/>
      <path class="cls-1" d="M787,123.5c5.78,4.13,11.94,8,17,13l-.35,1h-124.31l-4.84-1c-.52.05-1.03.09-1.55.05s-.99-.08-1.43-.25c-9.55-3.66-19.12-7.32-28.68-10.96-.44-.17-.84-.46-1.23-.77s-.77-.69-1.11-1.07h146.5Z"/>
      <path class="cls-50" d="M110,584.5c3.1,8.21,5,17.23,5.5,26l-.35,1H46.61l-.61-1c-1.87-8.59-3.63-17.31-5-26l.35-1h68.04l.62,1Z"/>
      <path class="cls-58" d="M289,854c.82.19,1.63.41,2.41.69s1.54.57,2.24.97c6.24,3.61,12.48,7.34,18.63,11.1,1.41.86,2.58,2.05,3.72,3.23l-.48,1c-37.94.03-75.9.01-113.89-.06l-2.13-.94c-5.96-5.21-12.21-10.44-18-16l.35-1h104.45l2.7,1Z"/>
      <path class="cls-51" d="M113,424.5c.11.71.2,1.42.23,2.13s.02,1.39-.1,2.06c-1.07,5.96-2.26,12-3.5,17.93-.29,1.38-.96,2.65-1.63,3.88l-.35,1H40.11l-.61-1c1.14-8.74,2.87-17.36,4.5-26l.35-.96c22.67-.05,45.35-.06,68.04-.04l.62,1Z"/>
      <path class="cls-60" d="M618,976.5c-70.66,15.93-140.34,15.53-211,0h211Z"/>
      <path class="cls-61" d="M977.5,611.5c-1.87,8.71-3.62,16.39-6,25l-.62,1h-68.77l-.62-1c-.07-1.36-.11-2.75.24-4.08,1.52-5.76,3.14-11.59,4.82-17.31.39-1.32,1.17-2.48,1.94-3.61l.62-1h67.77l.62,1Z"/>
      <path class="cls-37" d="M118.5,623.5l1.82,2.63,6.58,18.67c.24,1.06.28,2.13.1,3.2l-.35,1H56.62l-.62-1c-2.42-8.14-4.94-16.25-7-24.5l.35-1h68.54l.61,1Z"/>
      <path class="cls-77" d="M688,880.5l4.06-1h119.82l.62,1c-5.45,4.43-10.86,8.8-16.5,13h-137.5l.02-1.1c9.51-4.19,19.02-8.38,28.53-12.57l.95.67Z"/>
      <path class="cls-77" d="M336,880.5l.82-.73c9.51,4.19,19.02,8.38,28.53,12.57l.14,1.16h-137c-5.73-4.26-11.4-8.41-17-13l.35-1h120.09l4.06,1Z"/>
      <path class="cls-79" d="M491.5,920.5c2.58-1.58,8.18-1.11,10.75.5.1-.39.28-.98.58-1,1.91-.13,15.44-.31,16.18,0,.38.16.58.6.73,1,3.35-1.62,9.4-2.09,12.75-.5h223c-2,1.19-3.98,2.33-6,3.5h-475c-1.92-1.12-3.64-2.38-5.5-3.5h222.5Z"/>
      <path class="cls-31" d="M249.5,824.5c.53.1,1.04.22,1.54.4s.95.37,1.34.66c5.5,4.2,11.02,8.55,16.41,12.9.38.31.67.71.96,1.14s.53.91.75,1.4l-.35,1c-33.08.02-66.19,0-99.31-.03l-1.84-.97c-5.39-5.61-10.31-10.61-15.5-16.5l.35-1h93.26l2.39,1Z"/>
      <path class="cls-36" d="M667,962c-5.57,1.91-11.04,4.71-17,5.5h-275.5c-6.09-.82-11.76-3.51-17.5-5.5h310Z"/>
      <path class="cls-65" d="M735,854l3.01-1h103.87l.62,1c-5.29,5.08-10.51,9.68-16,14.5l-2.41.98c-36.85-.32-73.68-.65-110.48-.97l-.61-1.01c.24-.43.5-.85.81-1.23s.61-.72.98-.95c5.73-3.63,11.61-7.24,17.44-10.71.38-.23.83-.34,1.3-.44s.97-.14,1.47-.16Z"/>
      <path class="cls-75" d="M804,136.5c5.71,3.42,10.57,8.08,15.5,12.5-.04.4-.2,1-.48,1-34.72.33-70.44.29-105.41,0-4.57.41-8.94.07-13.11-1-.52.02-1.04.02-1.54-.05s-.98-.15-1.4-.35c-6.96-3.26-13.99-6.64-20.88-10.04-.42-.21-.79-.54-1.16-.88s-.7-.76-1.02-1.18h129.5Z"/>
      <path class="cls-1" d="M220,136.5h129.5c-1.33,1.97-3.39,3.01-5.51,3.94-6.18,3.34-13.34,6.79-19.99,8.56l-4.05,1-111.39.03c-1.23-.19-3.28-.54-3.06-2.03,2.11-1.77,13.01-11.26,14.5-11.5Z"/>
      <path class="cls-69" d="M819.5,149l1.25.47c4.5,4.46,9.59,8.25,14.25,12.53l-.35,1h-107.79l-3.36-1c-.59-.05-1.17-.13-1.74-.27s-1.09-.29-1.57-.55c-5.77-3.16-11.59-6.46-17.28-9.77-.47-.28-.88-.66-1.29-1.06s-.78-.87-1.13-1.34h119Z"/>
      <path class="cls-75" d="M324,149c-.76.93-1.56,1.89-2.61,2.51-5.56,3.24-11.25,6.46-16.89,9.55-.51.28-1.08.45-1.67.61s-1.21.25-1.83.33h-111.5c5.2-4.81,10.57-9.44,16-14l2.72,1.03,115.78-.03Z"/>
      <path class="cls-26" d="M967.5,649.5c-2.12,6.9-4.11,13.67-6.5,20.5l-.62.88c-23.57-.03-47.16-.15-70.77-.38l-.61-1c-.03-.59-.04-1.19.02-1.77.27-2.66,5.15-14.78,6.79-16.93.36-.47.77-.89,1.19-1.3l.95-1h68.94l.61,1Z"/>
      <path class="cls-49" d="M754,841l2.39-1h98.49l.62,1c-4.27,4.45-8.55,8.73-13,13h-107.5l1.07-1.92c2.63-2.13,14.58-11.05,16.72-11.17.4-.02.8.02,1.2.09Z"/>
      <path class="cls-49" d="M270.5,841c.93.11,1.91.25,2.73.75,3.2,1.96,13.64,8.59,15.12,10.91.27.42.47.87.66,1.34h-107.5c-4.39-4.21-8.43-8.77-12.5-13h101.5Z"/>
      <path class="cls-69" d="M835,162c4.18,3.85,8.44,8.46,12.5,12.5l-.35,1h-101.65l-3-1c-.47-.02-.94-.05-1.39-.15-1.58-.35-15.95-9.82-16.92-11.14-.27-.37-.49-.78-.69-1.2h111.5Z"/>
      <path class="cls-31" d="M867.5,828c-4.09,4.63-7.74,8.56-12,13h-101.5c.72-2.06,2.2-3.73,4.44-5.03,3.52-2.96,7.85-6.59,12.06-7.97l2.39-1c31.35,0,62.69,0,93.99,0l.62,1Z"/>
      <path class="cls-30" d="M316,870c7.18,2.19,14.13,5.81,20,10.5h-124.5c-4.13-3.39-8.02-7.03-12-10.5h116.5Z"/>
      <path class="cls-39" d="M847.5,174.5c3.98,3.97,7.67,7.93,11.5,12l-.35,1h-96.97l-2.68-1c-6.05-2.63-12.14-7.05-16.5-12h105Z"/>
      <path class="cls-76" d="M870,198.5c3.75,4.28,7.37,8.56,11,13l-.35,1h-89.28l-2.37-1-1.88-.36-11.55-10.35-.58-1.79.35-1c30.92-.16,61.85-.33,92.8-.49l1.85.99Z"/>
      <path class="cls-2" d="M961,670c-2,5.74-4.29,11.35-6.5,17l-.96.99c-23.81-.16-47.62-.33-71.43-.49l-.61-1c1.06-5.93,3.8-12.24,7.5-17l72,.5Z"/>
      <path class="cls-55" d="M225.5,802.5l1.97.51c2.14,1.68,11.07,9.63,11.44,11.36.08.36.09.74.09,1.12l-.35,1h-90.82l-1.83-1c-3.62-4.34-7.06-8.56-10.5-13l.35-1h87.56l2.1,1Z"/>
      <path class="cls-55" d="M888.5,802.5c-3.54,4.54-7.31,9.05-11,13.5l-.84.52c-26.08.17-53.85.11-80.66.01-3.52-.01-7.02-.51-10.5-1.03,1.77-3.78,8.24-11.13,11.97-12.58.49-.19,1.01-.32,1.53-.42h89.5Z"/>
      <path class="cls-39" d="M859,186.5c3.82,4.07,7.3,7.77,11,12l-95,.5-2.04-.38c-2.25-1.57-13.04-9.72-13.63-11.03-.16-.34-.25-.71-.33-1.09h100Z"/>
      <path class="cls-39" d="M265,186.5c-3.81,4.87-9.4,9.37-15,12-31.36.44-64.17.44-95.5,0,3.5-4.01,6.75-8,10.5-12l1.84-1c32.53,0,65.04,0,97.55,0l.61,1Z"/>
      <path class="cls-76" d="M249.5,199c-.15.46-.31.91-.54,1.32-.82,1.52-10.95,10.2-12.6,10.83-.44.16-.9.27-1.36.35l-2.09,1c-29.78,0-59.55,0-89.29,0l-.61-1c3.52-4.33,7.39-8.33,11-12.5,31.36-.44,64.17-.44,95.5,0Z"/>
      <path class="cls-52" d="M162.5,723.5c.37.12.73.27,1.06.46,1.21.73,7.02,10.24,8.22,12.4l.22,2.13-.35,1h-76.8l-1.36-1c-2.73-5.02-5.01-9.99-7.5-15l.35-1h74.8l1.36,1Z"/>
      <path class="cls-68" d="M213,789.5c5.02,3.11,9.55,7.89,12.5,13h-90c-3.37-4.36-6.31-8.59-9.5-13l.35-1h84.55l2.1,1Z"/>
      <path class="cls-54" d="M235,211.5l-.86,2.2c-1.78,2.02-8.74,9.38-10.4,10.01-.39.15-.81.23-1.23.3h-89c3.18-4.18,6.19-8.43,9.5-12.5h92Z"/>
      <path class="cls-29" d="M881,211.5c3.4,4.16,6.73,8.22,10,12.5h-89c-5.04-2.84-9.96-7.58-13-12.5h92Z"/>
      <path class="cls-16" d="M915.5,764c-2.77,4.44-5.61,8.7-8.5,13h-84.5c0-.4.04-.79.13-1.17.35-1.46,7.18-9.18,8.89-10.95l1.99-.88.96-.72c27.1,0,54.11.23,81.04.72Z"/>
      <path class="cls-34" d="M908.5,248.5c2.86,4.31,5.79,8.59,8.5,13l-.09.67c-26.66.19-53.35.3-80.07.33l-1.84-1c-.41-.11-.82-.25-1.19-.44-1.31-.67-8.73-9.87-9.12-11.31-.11-.4-.16-.83-.18-1.25h84Z"/>
      <path class="cls-34" d="M199.5,248.5l-.32,1.93-8.35,10.36-1.83.71-1.83,1h-79.06l-.61-1c2.77-4.47,5.66-8.74,8.5-13h83.5Z"/>
      <path class="cls-68" d="M201.5,777l2.02.79c1.77,1.68,8.9,9.12,9.31,10.54.11.37.15.77.18,1.17h-87c-3.13-4.33-5.95-7.95-9-12.5l.09-.67c27.5-.1,55.02-.13,82.58-.08l1.83.75Z"/>
      <path class="cls-64" d="M172,738.5c.72.26,1.5.54,2,1.14,2.79,3.31,6.33,7.92,7.5,11.86l-.35,1h-78.8l-1.36-1c-2.53-4.3-5.06-8.52-7.5-13h78.5Z"/>
      <path class="cls-18" d="M954.5,687c-1.85,4.72-3.45,8.82-5.5,13.5l-.95,1h-72.94l-.61-1c.74-4.85,3.59-10.48,7-14l73,.5Z"/>
      <path class="cls-41" d="M181.5,751.5c4.15,3,7.68,7.72,9.5,12.5l-.35,1h-80.8l-1.36-1c-2.58-4.12-5.07-8.38-7.5-12.5h80.5Z"/>
      <path class="cls-14" d="M119,399c.16,5.06-1.37,10.68-4,15l-.62,1c-22.4-.16-45.37-.33-67.77-.49l-.61-1c1.03-4.9,2.29-9.66,3.5-14.5l.61-1h68.28l.61,1Z"/>
      <path class="cls-8" d="M783,817.5l1.36-.74c30.49-.3,61-.39,91.52-.26l.62,1c-2.97,3.56-5.93,7.03-9,10.5h-97c2.28-4.27,7.31-7.75,11.34-10.47l1.16-.03Z"/>
      <path class="cls-73" d="M127,648c2.98,3.72,4.81,9.22,5,14l-.35,1c-23.69.06-47.37.02-71.03-.11l-.62-.89c-1.53-4.63-2.61-9.35-4-14h71Z"/>
      <path class="cls-12" d="M180,273.5l-.02,1.73-7.4,10.22-1.58.56-1.36,1h-75.53l-.61-1c2.31-4.24,4.58-8.34,7-12.5l1.36-1h77.53l.61,1Z"/>
      <path class="cls-72" d="M128,372.5c0,4.53-2.16,9.94-5,13.5l-.62.95c-22.92.07-45.84.08-68.77.05l-.62-1c1.3-4.67,2.57-9.37,4-14l.62-1c23.26.16,46.51.33,69.77.49l.61,1Z"/>
      <path class="cls-38" d="M171,286v1.79s-6.37,9.97-6.37,9.97l-1.63.73-1.36,1h-74.53l-.61-1c2.18-4.33,4.74-8.35,7-12.5h77.5Z"/>
      <path class="cls-50" d="M980.5,597.5c-.87,4.71-2,9.34-3,14h-69c-.51-4.5.58-10.2,3-14l.62-1h67.77l.62,1Z"/>
      <path class="cls-18" d="M143,687.5c3.19,2.94,6.05,8.68,6.5,13l-.35,1h-73.2l-.95-1c-1.89-4.35-3.75-8.59-5.5-13l.35-1h72.2l.95,1Z"/>
      <path class="cls-16" d="M191,764l1.77.63,7.04,9.07.2,1.81c.09.43.01.75-.35.75-27.31.03-55.37.01-82.7-.03l-.96-.72c-2.54-3.83-5.04-7.58-7.5-11.5h82.5Z"/>
      <path class="cls-72" d="M967,372.5c1.41,4.52,2.72,8.94,4,13.5l-.35,1c-23.19.05-46.37.02-69.54-.09l-.61-.91c-2.3-2.6-3.57-7.69-4.32-11.3-.15-.74.09-1.5.32-2.2l.35-1h69.54l.61,1Z"/>
      <path class="cls-28" d="M163,298.5c-.82,4.39-3.6,9.65-7,12.5l-1.35,1h-73.53l-.61-1c1.94-4.18,3.93-8.38,6-12.5h76.5Z"/>
      <path class="cls-28" d="M937.5,298.5c2.07,4.12,4.05,8.32,6,12.5l-.35,1c-24.57.06-49.13.02-73.69-.11l-.96-.89-1.67-.92-5.8-9.63-.02-1.95h76.5Z"/>
      <path class="cls-44" d="M988.5,517c-.06,4.68-.3,9.33-.5,14l-.35,1h-67.04l-.61-1c-1.35-4.35-1.09-9.73.5-14l.35-1h67.04l.61,1Z"/>
      <path class="cls-40" d="M149.5,700.5c2.3,1.93,6.67,8.37,7,11.14.05.45.04.9,0,1.36l-.35,1c-24.89.01-49.79,0-74.69-.03l-.96-.97c-1.94-4.14-3.68-8.31-5.5-12.5h74.5Z"/>
      <path class="cls-40" d="M949,700.5c-1.82,4.17-3.57,8.37-5.5,12.5l-.96,1h-74.43l-.62-1c.77-4.52,3.62-9.4,7-12.5h74.5Z"/>
      <path class="cls-26" d="M132,662c2.9,3.29,4.72,7.62,5,12,.65,1.4-2.36,1.86-3.57,2.03l-67.48-.03-.95-1c-1.59-4.34-3.54-8.59-5-13h72Z"/>
      <path class="cls-13" d="M137.5,348c.02,3.5-2.13,8.27-3.84,11.56l-1.66,1.44-.95,1H61.11l-.61-1c1.44-4.35,2.91-8.7,4.5-13l.95-1h70.94l.61,1Z"/>
      <path class="cls-13" d="M959,348c1.57,4.3,3.05,8.65,4.5,13l-.35,1h-70.2l-.95-1c-3.02-3.44-5.17-8.43-5.5-13h72.5Z"/>
      <path class="cls-44" d="M103,517l1.03,1.67.38,10.59-.91,1.74-.35,1H36.61l-.61-1c-.17-4.37-.47-9.2-.5-13.5,5.29-.43,10.72-.4,16,0,.37,0,1.26-.5,2.21-.52,16.41-.31,32.87.28,49.29.02Z"/>
      <path class="cls-41" d="M923,751.5c-2.34,4.01-4.55,8.05-7,12-27.01.18-54.06.07-81.16-.33l-.34-.67c.85-3.34,4.01-7.25,6.46-9.92.53-.58,1.31-.84,2.04-1.08h80Z"/>
      <path class="cls-4" d="M280.5,96h463.5c1.18.67,2.33,1.32,3.5,2h-471c1.21-.63,2.4-1.91,4-2Z"/>
      <path class="cls-33" d="M149.5,323c-.49,4.33-3.31,9.5-6.5,12.5l-.95,1h-71.43l-.62-1c1.72-4.27,3.69-8.35,5.5-12.5l.96-1h70.07c1.62-.31,2.61.03,2.98,1Z"/>
      <path class="cls-48" d="M106,558c1.99,3.76,2.5,9.34,1.5,13.5l-.35,1H39.61l-.61-1c-.54-4.37-1.11-9.1-1.5-13.5l.35-1h67.54l.61,1Z"/>
      <path class="cls-48" d="M986.5,558c-.41,4.42-1.45,9.19-2,13.5l-.35,1h-67.04l-.61-1c-.95-4.32-.46-9.56,1.5-13.5l.35-1h67.54l.61,1Z"/>
      <path class="cls-43" d="M104.5,544.5c1.89,3.9,2.59,9.3,1.5,13.5H37.5c-.39-4.46-.23-9.04-.5-13.5l.35-1h66.54l.61,1Z"/>
      <path class="cls-43" d="M987.5,544.5c-.3,4.41-.59,9.11-1,13.5h-68.5c-1.13-4.1-.37-9.66,1.5-13.5l.35-1h67.04l.61,1Z"/>
      <path class="cls-17" d="M988.5,503.5c.1,4.48.06,9.02,0,13.5h-68c-1.44-4.32-1.41-9.18,0-13.5h68Z"/>
      <path class="cls-37" d="M971.5,636.5c-1.21,4.38-2.67,8.67-4,13h-70.5c-.06-4.39,1.75-9.58,4.5-13h70Z"/>
      <path class="cls-2" d="M143,687.5h-73.5c-1.65-4.16-2.97-8.31-4.5-12.5l68.77.03,3.23-1.03c3.17,3.33,5.56,8.93,6,13.5Z"/>
      <path class="cls-71" d="M988,531c-.19,4.44-.2,9.1-.5,13.5h-68c-1.28-4.05-1.22-9.64.5-13.5h68Z"/>
      <path class="cls-77" d="M703,873l3.35-1h114.53l.62,1c-2.99,2.55-5.98,5.05-9,7.5h-124.5c-.17-.35-.36-.92-.14-1.05,2.02-1.21,12.58-6.78,14.17-7.08l.98.63Z"/>
      <path class="cls-71" d="M103.5,531c1.8,3.63,2.27,9.68,1,13.5H37c-.27-4.4-.82-9.01-1-13.5h67.5Z"/>
      <path class="cls-42" d="M105,476.5c1.07,4.48.7,9.22-1,13.5H36.5c.21-4.5.19-9,.5-13.5l.35-1h67.04l.61,1Z"/>
      <path class="cls-47" d="M971,386c1.22,4.34,2.92,8.6,4,13l-.35,1h-69.03l-.62-1c-2.59-3.24-4.84-8.89-4.5-13h70.5Z"/>
      <path class="cls-23" d="M143,335.5c-.21,4.16-2.54,9.62-5.5,12.5h-72.5c1.56-4.22,3.35-8.41,5-12.5h73Z"/>
      <path class="cls-47" d="M123,386c.12,4.5-1.37,9.35-4,13H49.5c1.1-4.42,2.28-8.63,3.5-13h70Z"/>
      <path class="cls-25" d="M943.5,311c1.88,4.01,3.72,7.94,5.5,12h-74.5c-2.6-1.98-4.77-6.75-6.07-10.02l.07-1.98h75Z"/>
      <path class="cls-25" d="M156,311c-.75,4.45-3.18,8.94-6.5,12h-74c1.7-3.9,3.17-8.05,5-12h75.5Z"/>
      <path class="cls-57" d="M977.5,411.5c.91,4.34,1.7,8.63,2.5,13l-.35,1h-68.04l-.62-1-1.29-1.3-1.85-10.04.64-1.66.35-1h68.04l.62,1Z"/>
      <path class="cls-9" d="M983,584.5c-.68,4.32-1.71,8.69-2.5,13h-69c-.73-4.04.75-9.54,3-13l.35-.99c22.51-.02,45.02-.02,67.54-.01l.61,1Z"/>
      <path class="cls-24" d="M107.5,571.5c2.11,3.51,3.36,9.02,2.5,13H41c-.68-4.29-1.47-8.7-2-13h68.5Z"/>
      <path class="cls-27" d="M980,424.5c.79,4.31,1.81,8.67,2.5,13l-.35,1h-67.54l-.61-1c-2.24-3.47-3.73-8.96-3-13h69Z"/>
      <path class="cls-51" d="M982.5,437.5c.68,4.3,1.43,8.7,2,13l-.35,1h-67.54l-.61-1c-2.09-3.71-2.81-8.82-2-13h68.5Z"/>
      <path class="cls-24" d="M984.5,571.5c-.55,4.29-.83,8.73-1.5,13h-68.5c-.92-3.8-.07-9.68,2-13h68Z"/>
      <path class="cls-3" d="M984.5,450.5c.56,4.27,1.07,8.72,1.5,13l-.35,1h-67.54l-.61-1c-1.98-3.66-2.48-8.93-1.5-13h68.5Z"/>
      <path class="cls-3" d="M108,450.5c.97,3.99,0,9.39-2,13l-.35,1H38.61l-.61-1c.41-4.31.94-8.71,1.5-13h68.5Z"/>
      <path class="cls-22" d="M986,463.5c.43,4.3.68,8.69,1,13h-68c-1.88-3.82-2.56-8.9-1.5-13h68.5Z"/>
      <path class="cls-22" d="M106,463.5c1.15,3.85.87,9.47-1,13H37c.3-4.32.59-8.69,1-13h68Z"/>
      <path class="cls-14" d="M975,399c1.01,4.1,1.63,8.37,2.5,12.5h-69c-2.43-3.14-3.99-8.55-3.5-12.5h70Z"/>
      <path class="cls-8" d="M239,815.5c.26-.33.66-.79.97-.69,1.53.52,8.24,6.89,9.63,8.45l-.1,1.24h-96c-2.59-2.94-5.06-6.07-7.5-9h93Z"/>
      <path class="cls-56" d="M963.5,361c1.28,3.82,2.32,7.72,3.5,11.5h-70.5c-2.59-2.55-4.77-7.87-4.5-11.5h71.5Z"/>
      <path class="cls-12" d="M924,273.5h-80c-3.53-2.32-6.26-5.96-7.5-10,0-.39.1-1,.34-1,26.39-.41,53.63-.41,80.03-.25.27,0,.47.41.62.75,2.15,3.51,4.43,6.93,6.5,10.5Z"/>
      <path class="cls-74" d="M156.5,713c3.1,2.38,5.47,6.63,6,10.5h-76.5c-1.75-3.52-3.82-6.91-5.5-10.5h76Z"/>
      <path class="cls-74" d="M943.5,713c-1.62,3.47-3.3,7.07-5,10.5l-1.36,1h-75.02l-.62-1c.6-3.95,2.86-8.02,6-10.5h76Z"/>
      <path class="cls-56" d="M132,361c.23,3.72-1.37,8.89-4,11.5l-71-.5c1.14-3.69,2.28-7.33,3.5-11h71.5Z"/>
      <path class="cls-6" d="M116,612.5c2.24,2.56,3.2,7.65,2.5,11H49c-.91-3.64-1.68-7.34-2.5-11l.35-1h68.54l.61,1Z"/>
      <path class="cls-57" d="M115,414c.88,3.1.11,8.09-2,10.5H44c.69-3.66,1.23-7.35,2-11l69,.5Z"/>
      <path class="cls-35" d="M186,265c-.45,3.17-3.12,7.15-6,8.5h-79.5c1.64-2.82,3.29-5.67,5-8.5l1.36-1h78.53l.61,1Z"/>
      <path class="cls-39" d="M273.5,180c-1.35,2.91-5.32,6.04-8.5,6.5h-100c2.03-2.17,3.91-4.36,6-6.5h102.5Z"/>
      <path class="cls-65" d="M713,867.5l113.5,1c-1.67,1.47-3.29,3.04-5,4.5h-118.5c0-.51.02-1.1.36-1.5,1.15-1.32,7.8-4.55,9.64-4Z"/>
      <path class="cls-62" d="M189,261.5c.85,1.33-1.56,4.12-3,3.5h-80.5c.69-1.14,1.28-2.34,2-3.5h81.5Z"/>
      <path class="cls-7" d="M731.5,934c-.68.35-1.34.66-2,1h-435c-.62-.32-1.09-.79-1.5-1h438.5Z"/>
      <path class="cls-74" d="M938.5,723.5c-.42.85-1.07,1.65-1.5,2.5h-77c-.54-1.53-.11-2.26,1.5-2.5h77Z"/>
      <path class="cls-8" d="M877.5,816c-.3.37-.55.96-1,1.5h-93.5c-1.16-1.29,1.38-3.5,2.5-2,29.74.24,59.51-.32,89.26,0,.85,0,2.22-.32,2.74.51Z"/>
      <path class="cls-4" d="M431.5,111h-176c.35-.97,1.3-1.06,2-1.5.52.83,1.9.5,2.74.51,56.33.59,112.7-.44,169.03-.04l2.22,1.03Z"/>
      <path class="cls-4" d="M767,110c.52.34,1,.68,1.5,1h-174.5l2.22-1.03,170.78.03Z"/>
      <path class="cls-34" d="M917,261.5c.3.49.32,1.2.5,1.5l-81,.5c-1.56.19-2.11-.56-1.5-2h82Z"/>
      <path class="cls-6" d="M115.5,610.5c1.1.4,1.29,1.13.5,2H46.5c-.15-.68-.36-1.35-.5-2h69.5Z"/>
      <path class="cls-5" d="M200,775.5c1.39-.62,1.92.05,1.5,1.5h-84.5c-.34-.5-.66-.99-1-1.5h84Z"/>
      <path class="cls-41" d="M916,763.5c-.12.19-.39.32-.5.5h-82c-1.07-1.01-.43-1.69,1-1.5l81.5,1Z"/>
      <path class="cls-78" d="M383.5,123.5h-146c.14-.56.7-.71,1-1l145,1Z"/>
      <path class="cls-76" d="M250,198.5c.65.72.36,1-.5.5h-95.5c.16-.18.35-.33.5-.5h95.5Z"/>
      <path class="cls-44" d="M51.5,517.5c-5.32.12-10.68-.09-16,0,0-.17,0-.33,0-.5,4.41.05,8.84-.06,13.26,0,.85.01,2.22-.32,2.74.51Z"/>
      <path d="M594,111c15.54,3.96,31.26,7.47,46.5,12.5,11.01,3.63,23.38,8.35,34,13,8.55,3.75,17.79,8.21,26,12.5,7.66,4,15.6,8.52,23,13,6.24,3.78,12.99,8.32,19,12.5,5.53,3.84,11.15,7.92,16.5,12s11.19,8.5,16,12.5c4.41,3.66,9.68,8.55,14,12.5s8.8,8.28,13,12.5c7.59,7.64,15.55,16.27,22.5,24.5,3.46,4.1,7.17,8.77,10.5,13,.51.65.99,1.34,1.5,2,2.54,3.27,5.06,6.65,7.5,10,5.87,8.07,11.79,16.49,17,25,2.44,3.98,5.29,8.54,7.5,12.5,2.06,3.69,3.99,8.11,6,12,4.22,8.18,8.29,16.58,12,25,1.88,4.26,3.79,8.67,5.5,13,1.46,3.7,3.19,7.8,4.5,11.5,1.55,4.37,2.58,9.09,4,13.5s3.24,8.64,4.5,13c1.17,4.07,2.48,8.47,3.5,12.5s1.6,8.85,2.5,13,2.2,8.62,3,13,1.37,8.71,2,13,.99,8.65,1.5,13,1.13,8.64,1.5,13c.26,3.09,1,7.42,1,10.25v9c0,2.08.45,5.25.5,7.75.1,4.48.05,9.02,0,13.5-.05,4.73-.3,9.33-.5,14s-.17,9.06-.5,13.5-1.02,9.03-1.5,13.5-.86,9.02-1.5,13.5c-.6,4.18-1.24,8.88-2,13-.8,4.34-2.07,8.69-3,13-1,4.63-1.86,9.41-3,14-2.07,8.33-4.36,16.84-7,25-1.38,4.28-2.96,8.77-4.5,13-2.42,6.65-5.24,13.47-8,20-2.39,5.65-4.88,11.45-7.5,17-2.18,4.62-4.64,9.46-7,14-2.18,4.2-4.67,8.37-7,12.5-1.97,3.49-3.93,7.07-6,10.5-.5.83-1,1.68-1.5,2.5-5.28,8.59-11.05,17.36-17,25.5-2.63,3.6-5.69,7.42-8.5,11-.41.53-.69,1.11-1,1.5-3.35,4.23-7.45,8.84-11,13-7.23,8.46-14.48,15.65-22.22,23.51-.61.62-1.24.94-1.28,1.99-4.78,3.97-9.31,8.38-13.5,13-1.45.27-1.82,1.5-2.5,2-4.27,3.13-8.27,7.08-12.5,10.5-5.43,4.39-11.38,8.33-16.5,13-6.67,3.65-12.7,8.9-19,13-6.97,4.53-14.79,9.39-22,13.5-3.28,1.87-6.97,3.17-10,5.5l-15,7.5-29.5,13-40.5,13.5c-21.17,5.27-42.43,10.04-64.25,12l-21.25,1.5c-4.22,0-8.72.5-12.75.5h-17.5c-3.36,0-7.19-.5-10.75-.5l-20.25-1.5c-36.31-3.65-71.68-12.85-105.75-25.5l-29.5-13c-6.71-3.4-13.41-6.88-20-10.5-9.19-5.05-18.05-10.54-27-16-5.95-4.62-12.47-8.5-18.5-13-6.9-5.15-14.34-11.03-21-16.5-2.01-1.65-8.73-8.67-10.5-9-4.03-4.79-9.06-8.61-13.5-13s-8.42-8.64-12.5-13c-3.73-3.99-8-8.42-11.5-12.5-.53-.62-1.16-1.09-1.5-1.5-2.88-3.41-6.1-7.85-9-11.5-3.22-4.06-6.41-8.33-9.5-12.5s-6.62-8.74-9.5-13c-3.14-4.65-6.59-10.18-9.5-15-2.06-3.41-4.04-7.02-6-10.5-2.3-4.08-4.85-8.4-7-12.5s-4.49-8.83-6.5-13-4.07-9.08-6-13.5c-1.72-3.95-3.42-7.99-5-12-1.82-4.63-3.32-9.33-5-14-2.92-8.1-6.17-16.21-8.5-24.5-1-3.57-1.61-7.39-2.5-11-.17-.67-.34-1.32-.5-2-2.09-8.64-3.9-17.27-5.5-26-.79-4.31-1.87-8.67-2.5-13s-1-9.05-1.5-13.5-1.14-9.01-1.5-13.5-.77-9.23-1-13.5-.44-9.59-.5-14c-.05-3.91.5-8.04.5-11.75v-11c0-.74.42-2.95.5-4.25.27-4.52.62-9,1-13.5s.51-8.75,1-13,1.35-8.69,2-13c1.33-8.79,3.15-17.34,5-26,.73-3.44,1.18-7.08,2-10.5,1.19-5,2.58-10.05,4-15,1.24-4.32,2.6-8.73,4-13,1.49-4.54,3.35-9.02,5-13.5,1.39-3.77,2.53-7.78,4-11.5,1.65-4.17,3.7-8.84,5.5-13s3.62-8.55,5.5-12.5c1.98-4.16,4.36-8.39,6.5-12.5s4.29-8.07,6.5-12,4.56-8.5,7-12.5,5.44-8.66,8-12.5,6.18-8.6,9-12.5c2.01-2.78,3.93-5.8,6-8.5.78-1.02,2.04-2.27,3-3.5,3.26-4.15,7.11-9.03,10.5-13,7.13-8.35,15.24-16.72,23-24.5,4.03-4.04,8.38-8.65,12.5-12.5,4.53-4.22,9.7-8.46,14.5-12.5.18-.15.32-.35.5-.5,4.85-4.07,9.96-8.17,15-12,2.79-2.12,5.73-4.51,8.5-6.5,8.76-6.3,18.24-12.36,27.5-18,7.39-4.5,15.33-9.01,23-13,8.39-4.37,17.16-8.03,25.5-12.5,11.59-3.92,22.84-9.11,34.5-13,15.27-5.09,31.7-9.33,47.5-12.5,53.63-10.76,108.86-10.67,162.5,0Z"/>
      <path class="cls-14" d="M872,399c1.3,4.18,2.35,8.28,3.5,12.5l-.48,1h-346.89l-.63-1c0-4.16,0-8.34,0-12.5l.48-1c114.45-.01,228.91,0,343.39.02l.63.98Z"/>
      <path class="cls-72" d="M863,373.5c1.65,4.14,3,8.32,4.5,12.5l-.48,1h-338.89l-.63-1c0-4.16,0-8.34,0-12.5l.48-1h334.05l.97,1Z"/>
      <path class="cls-56" d="M696,361c.97,2.5,2.47,7.74,3.6,9.65.47.79.67,1.02,1.65.85.46-.08,2.67-7.58,3.16-8.86.28-.72.98-1.33,1.09-1.64l.78-1h150.25l.96,1c1.83,4.17,3.81,8.27,5.5,12.5h-335.5c0-4.16,0-8.34,0-12.5l.48-1h167.05l.97,1Z"/>
      <path class="cls-23" d="M681.5,323c3.11,8.33,6.32,16.69,9.5,25-.04.4-.2,1-.48,1-53.51.33-108.88.33-162.4,0l-.62-1c0-8.33,0-16.67,0-25l.48-1c50.98-.07,101.94-.03,152.9.13l.62.87Z"/>
      <path class="cls-64" d="M326,726c10.64,9.16,22.13,17.97,34,25.5l-2.73.51h-135.15s-.62-.51-.62-.51c-6.98-8.28-13.23-16.57-19.5-25.5l.48-1h121.11l2.42,1Z"/>
      <path class="cls-11" d="M496.5,777c0,4.16,0,8.34,0,12.5-.04.4-.2,1-.48,1-74.51.33-151.34.42-226.27,0-4.27.48-8.18.15-11.75-1-4.57-4.22-8.6-8.09-13-12.5l.16-.67c82.63-.15,168.35-.15,250.99,0l.35.67Z"/>
      <path class="cls-68" d="M496.5,789.5c0,4.33,0,8.67,0,13l-.16.5-221.45.25-1.89-.75c-5.33-4.43-9.81-8.21-15-13h238.5Z"/>
      <path class="cls-21" d="M496.5,236.5c0,3.99,0,8.01,0,12-83.12.44-170.25.44-253.5,0,4.11-4.18,8.26-8.04,12.5-12l2.16-1h238.21l.63,1Z"/>
      <path class="cls-21" d="M496.5,224c0,4.16,0,8.34,0,12.5h-241c4.54-4.24,8.49-9.3,14-12.5l1.89-1h224.48l.63,1Z"/>
      <path class="cls-40" d="M289,687.5c5.91,7.38,12.15,14.5,18.67,21.33,1.13,1.19,3.22,2.36,3.83,4.17.1.42.02.75-.35.75-38.66.03-78.5,0-117.19-.03l-.96-.72c-5.28-8.3-9.92-16.79-14.5-25.5l.35-1h108.31l1.84,1Z"/>
      <path class="cls-54" d="M285,211.5l2.45-1h208.42l.63,1c0,4.16,0,8.34,0,12.5h-227c.42-.8,1.08-1.4,1.76-1.99,1.79-1.54,12.61-10.33,13.74-10.51Z"/>
      <path class="cls-47" d="M867.5,386c1.55,4.34,3.12,8.59,4.5,13h-344.5v-13h340Z"/>
      <path class="cls-16" d="M496.5,764c0,3.83,0,7.67,0,11.5.06.47-.07.75-.48.75-82.72.03-168.35.03-251.13-.05l-1.39-.7c-3.28-3.32-6.35-6.62-9.5-10l.16-.67c49.03-.1,98.13-.13,147.3-.08l3.04.75,21,9c.54-3.48.44-6.98.5-10.5l.35-1h89.53l.62,1Z"/>
      <path class="cls-55" d="M496.5,803.5c0,3.99,0,8.01,0,12l-.48,1h-203.95l-3.07-1c-4.94-3.71-9.72-7.59-14.5-11.5l.16-.67c73.81-.18,147.64-.3,221.49-.33l.35.5Z"/>
      <path class="cls-54" d="M302.5,199l2.74-1h190.64l.62,1c0,4.16,0,8.34,0,12.5h-211.5c5.19-4.69,11.49-8.79,17.5-12.5Z"/>
      <path class="cls-45" d="M618.5,477c0,8.83,0,17.67,0,26.5l-.35,1h-90.04l-.61-1c0-8.83,0-17.67,0-26.5l.35-1h90.04l.61,1Z"/>
      <path class="cls-50" d="M237,585.5c2.33,8.85,4.77,16.44,8,25,0,.39-.11,1-.35,1-31.66.33-64.36.33-96.03,0l-.62-1c-2.27-8.23-4.31-16.11-6-24.5l.35-1c31.34-.16,62.68-.33,94.03-.49l.62,1Z"/>
      <path class="cls-9" d="M618.5,571.5c0,8.66,0,17.34,0,26l-.35,1h-89.53l-.62-1c0-8.45,0-17.34,0-26l.35-1h89.53l.62,1Z"/>
      <path class="cls-31" d="M496.5,828c0,4.33,0,8.67,0,13l-.48,1c-54.64.03-109.35.01-164.13-.07l-3.39-.93c-7.39-4.13-14.05-8.47-21-13l.48-1h187.9l.62,1Z"/>
      <path class="cls-18" d="M618.5,687.5c0,8.49,0,17.01,0,25.5l-.35,1h-90.04l-.61-1c0-8.49,0-17,0-25.5l.35-1h90.04l.61,1Z"/>
      <path class="cls-39" d="M322.5,186.5l3.06-1h170.32l.62,1c0,4.16,0,8.34,0,12.5h-194c6.24-4.72,12.99-9.11,20-12.5Z"/>
      <path class="cls-18" d="M496.5,687.5c0,8.49,0,17.01,0,25.5l-.35,1h-89.53l-.62-1c.01-8.49,0-17.01,0-25.5l.35-1h89.53l.62,1Z"/>
      <path class="cls-61" d="M618.5,611.5c0,8.33,0,16.67,0,25l-.35,1h-89.53l-.62-1c0-8.23-.5-16.65-.5-25l.35-1h90.04l.61,1Z"/>
      <path class="cls-61" d="M496.5,611.5c.06,8.32-.01,16.67,0,25l-.35,1h-89.53l-.62-1c0-8.33-.03-16.67,0-25l.35-1h89.53l.62,1Z"/>
      <path class="cls-22" d="M761,463.5c-2.46,6.44-4.54,13.06-7,19.5l-.96,1h-106.59l-.96-1c-2.46-6.5-5.03-12.99-7.5-19.5l.35-1h122.03l.62,1Z"/>
      <path class="cls-56" d="M496.5,348.5c0,7.99.01,16.01,0,24l-.35,1h-90.04l-.61-1c-.01-7.99,0-16.01,0-24l.35-1h90.04l.61,1Z"/>
      <path class="cls-13" d="M691,348c1.66,4.32,3.32,8.68,5,13h-168.5c0-4.33,0-8.67,0-13h163.5Z"/>
      <path class="cls-34" d="M496.5,249c0,4.16,0,8.34,0,12.5l-.35,1h-90.04l-.61-1c-.03-3.04.42-7.48,0-10.27-.11-.73.29-.8-.76-.75-1.39.07-11.01,4.49-13.08,5.43-3.87,1.76-7.89,3.64-11.66,5.59l-2.3-.51-144.23.05c-1.49.13-1.98-.22-1.47-1.03,3.45-3.81,6.92-7.34,10.5-11,83.49-.44,170.55-.44,254,0Z"/>
      <path class="cls-64" d="M822,726c-6.41,9.1-12.35,16.97-19.5,25.5l-1.82,1h-68.07l-.61-1c0-8.49-.02-17.01,0-25.5l.35-1h89.04l.61,1Z"/>
      <path class="cls-49" d="M496.5,841c0,4.33,0,8.67,0,13l-.48,1h-137.54l-4.49-1c-8.85-4.14-16.97-8.23-25.5-13h168Z"/>
      <path class="cls-45" d="M228.5,482c-.69,7-1.27,14.63-1.5,21.5l-.09.5h-91.56l-.35-.5c.13-7.41.44-14.12,1-21.5l.35-1h91.53l.62,1Z"/>
      <path class="cls-58" d="M496.5,854c-.01,5.33.02,10.67,0,16l-.35,1c-31.96.01-63.99,0-96.1-.02l-6.05-.98c-14.19-4.71-26.52-9.69-40-16h142.5Z"/>
      <path class="cls-32" d="M344.5,174.5l3.73-1h147.64l.62,1c0,3.99,0,8.01,0,12h-174c6.57-4.86,14.59-8.46,22-12Z"/>
      <path class="cls-27" d="M776,424.5c-1.62,4.36-3.35,8.66-5,13l-.78,1h-141.26l-.96-1c-1.61-4.28-2.89-8.73-4.5-13l.48-1h151.4l.62,1Z"/>
      <path class="cls-26" d="M276,670c4.12,5.99,8.45,11.81,13,17.5h-110.5c-3.05-5.79-6.24-11.56-9-17.5l.35-1c34.91,0,69.84,0,104.78.02l1.37.98Z"/>
      <path class="cls-25" d="M672.5,298.5c1.55,4.17,3.44,8.31,5,12.5l-.48,1h-148.91l-.62-1c0-4.16,0-8.34,0-12.5l.48-1h143.56l.96,1Z"/>
      <path class="cls-56" d="M852,348.5c1.99,4.11,3.67,8.32,5.5,12.5h-152c1.51-4.03,2.47-8.45,4-12.5l.78-.95c46.91-.06,93.82-.07,140.75-.04l.97.99Z"/>
      <path class="cls-25" d="M677.5,311c1.46,3.91,2.54,8.08,4,12h-154c0-3.99,0-8.01,0-12h150Z"/>
      <path class="cls-51" d="M771,437.5c-1.65,4.33-3.35,8.67-5,13l-.78,1h-131.25l-.96-1c-1.63-4.34-3.37-8.66-5-13h143Z"/>
      <path class="cls-38" d="M668,286c1.54,4.14,2.97,8.39,4.5,12.5h-145c0-4.26.52-8.33.5-12.5l.48-1h138.55l.97,1Z"/>
      <path class="cls-69" d="M371.5,162l4.85-1h119.53l.62,1c0,4.16,0,8.34,0,12.5h-152c8.63-4.84,17.78-8.88,27-12.5Z"/>
      <path class="cls-12" d="M663,273.5c1.52,4.09,3.44,8.32,5,12.5h-140c-.02-4.16-.5-8.23-.5-12.5l.48-1c44.8-.07,89.6-.03,134.4.13l.62.87Z"/>
      <path class="cls-22" d="M231,463.5c-1.04,5.82-1.92,12.6-2.5,18.5h-92.5c.47-6.26,1.22-12.32,2-18.5l.35-1h92.04l.61,1Z"/>
      <path class="cls-12" d="M359,273.5c-5.83,3.69-12.44,8.37-18,12.5l-2.72,1h-127.16l-.62-1c3.22-4.28,6.61-8.36,10-12.5l1.87-1h136.01l.62,1Z"/>
      <path class="cls-14" d="M496.5,399c-.02,6.16.02,12.34,0,18.5h-91c-.02-6.16.02-12.34,0-18.5l.35-1h90.04l.61,1Z"/>
      <path class="cls-3" d="M766,450.5c-1.65,4.34-3.35,8.67-5,13h-123c-1.64-4.33-3.37-8.66-5-13h133Z"/>
      <path class="cls-41" d="M381.5,764c.06.47-.07.75-.48.75-48.52.03-98.59.04-147.15-.06l-1.38-.69c-3.51-3.82-7.14-7.54-10.5-11.5l.16-.5h135.05s2.79-.5,2.79-.5c7.02,4.45,14.48,8.06,21.5,12.5Z"/>
      <path class="cls-57" d="M876.5,414c.91,3.44,1.7,7.03,2.5,10.5l-.35,1c-31.67.01-63.35,0-95.03-.02l-.62-.98c-.97-3.09-1.37-7.24-3.49-9.5-1.22,3.14-2.33,6.34-3.51,9.5h-152.5c-1.21-3.2-2.44-6.45-4.01-9.5-.68.09-.87.68-.97,1.27-.37,2.22,0,5.79-.02,8.23l-.35,1h-90.04l-.61-1c0-3.49,0-7.01,0-10.5l.48-1h347.54l.98,1Z"/>
      <path class="cls-34" d="M659,261.5l-.48,1h-130.4l-.62-1c0-4.16,0-8.34,0-12.5l.47-1c41.67-.16,83.36-.33,125.06-.49l.97,1c1.58,4.25,3.39,8.67,5,13Z"/>
      <path class="cls-35" d="M659,261.5c1.46,3.93,2.58,8.18,4,12h-135.5c0-3.99,0-8.01,0-12h131.5Z"/>
      <path class="cls-38" d="M341,286c-4.96,3.68-11.37,8.54-16,12.5l-2.41,1h-120.48l-.62-1c2.94-4.23,5.9-8.38,9-12.5h130.5Z"/>
      <path class="cls-33" d="M838,323c2.43,4.16,4.71,8.26,7,12.5l-.48,1h-128.9l-.62-1c1.57-4.12,2.93-8.36,4.5-12.5l.96-1h116.17l1.37,1Z"/>
      <path class="cls-21" d="M649.5,236.5c1.48,3.97,3.02,8.01,4.5,12l-126.5.5c0-4.16,0-8.34,0-12.5l.35-1h120.69l.96,1Z"/>
      <path class="cls-28" d="M325,298.5c-4.27,3.65-8.88,8.52-13,12.5l-2.13,1h-116.25l-.62-1c2.7-4.23,5.63-8.38,8.5-12.5h123.5Z"/>
      <path class="cls-21" d="M645,224c1.54,4.15,2.96,8.36,4.5,12.5h-122c0-4.16,0-8.34,0-12.5l.35-1h116.19l.96,1Z"/>
      <path class="cls-31" d="M618.5,824.5c0,5.49.02,11.01,0,16.5l-.35,1h-89.53l-.62-1c-.02-5.52.02-11.08,0-16.5l.35-1h89.53l.62,1Z"/>
      <path class="cls-58" d="M618.5,854c-.03,5.24.27,10.81,0,16l-.35,1h-89.53l-.62-1c.04-5.33,0-10.67,0-16l.35-1h89.53l.62,1Z"/>
      <path class="cls-29" d="M640.5,211.5c1.54,4.14,2.96,8.36,4.5,12.5h-117.5c0-4.16,0-8.34,0-12.5l.35-1h111.7l.95,1Z"/>
      <path class="cls-76" d="M635.5,198.5c1.58,4.25,3.39,8.67,5,13h-113c0-4.33-.02-8.67,0-13l.35-1h106.69l.96,1Z"/>
      <path class="cls-18" d="M845.5,687.5c-2.33,4.42-4.5,8.65-7,13l-1.37,1h-104.51l-.62-1c.04-2.87-.15-5.76.12-8.63.63-1.81,2.41-3.03,3.38-4.37l1.37-.92c36.01-.09,72.01-.12,108.01-.08l.62,1Z"/>
      <path class="cls-33" d="M300,323c-3.48,3.88-7.23,8.42-10.5,12.5l-1.84,1h-108.04l-.62-1c2.28-4.27,4.58-8.32,7-12.5l1.16-1h112.22l.62,1Z"/>
      <path class="cls-75" d="M409,149l7.32-1h79.56l.61,1c.03,4.33,0,8.67,0,13h-125c12.09-5.35,24.74-9.53,37.5-13Z"/>
      <path class="cls-74" d="M313.5,714.5c4.24,3.29,8.31,7.9,12.5,11.5h-124c-2.67-3.8-5.45-7.56-8-11.5l.09-.67c39.05-.1,78.15-.13,117.29-.08l2.12.75Z"/>
      <path class="cls-8" d="M496.5,817.5c0,2.33,0,4.67,0,7l-.48,1h-190.61l-3.41-1c-3.36-2.28-6.63-4.53-10-7l.48-1h203.4l.62,1Z"/>
      <path class="cls-25" d="M312,311c-4.04,3.91-8.24,7.81-12,12h-114c2.34-4.03,4.49-8.06,7-12h119Z"/>
      <path class="cls-13" d="M280,348c-3.04,4.2-6.19,8.65-9,13l-1.36,1h-102.52l-.61-1c1.95-4.37,3.88-8.67,6-13l.96-.92c35.31-.09,70.61-.12,105.92-.08l.62,1Z"/>
      <path class="cls-39" d="M631,185.5c1.6,4.28,2.91,8.73,4.5,13h-108c.02-4.39.48-8.77.5-13l.35-1h101.69l.96,1Z"/>
      <path class="cls-2" d="M852,675c-2.05,4.25-4.3,8.34-6.5,12.5h-110c3.07-4.23,6.49-8.27,9.5-12.5l1.36-.96c35.02-.05,70.02-.06,105.02-.04l.62,1Z"/>
      <path class="cls-25" d="M831,311c2.48,3.95,4.65,7.99,7,12h-118.5c1.52-3.99,2.98-8.01,4.5-12l.95-1h104.68l1.36,1Z"/>
      <path class="cls-50" d="M879.5,597.5c-1.06,4.66-2.26,9.38-3.5,14l-.62,1h-95.77l-.62-1c1.69-4.43,3.58-9.58,5-14l.61-1h94.27l.61,1Z"/>
      <path class="cls-9" d="M233.5,571.5c1,4.66,2.29,9.38,3.5,14l-95,.5c-.98-4.85-1.74-9.62-2.5-14.5l.35-1h93.03l.62,1Z"/>
      <path class="cls-45" d="M751,490c-1.71,4.47-3.29,9.03-5,13.5l-.96,1h-89.7c-.96.16-1.39-.16-1.84-1-1.71-4.5-3.78-8.96-5.5-13.5l.35-1h102.03l.62,1Z"/>
      <path class="cls-73" d="M823.5,636.5l.34-1h43.55l.61,1c-1.58,4.43-3.28,8.66-5,13l-.96,1h-100.42l-.62-1c2.36-4.23,4.34-8.68,6.5-13l1.34-.5,54.66.5Z"/>
      <path class="cls-73" d="M256,636.5c2.15,4.34,4.61,8.77,7,13,0,.39-.11,1-.35,1-31.62.33-64.24.48-96,0-2.43.4-4.31.06-5.65-1-1.68-4.28-3.45-8.57-5-13l.35-1c32.89-.01,65.79,0,98.7.03l.95.97Z"/>
      <path class="cls-47" d="M257,386c-2.04,4.08-4.71,8.92-6.5,13l-.96,1h-96.92l-.62-1c1.36-4.36,2.98-8.7,4.5-13l.62-.88c33.07-.14,66.16-.18,99.26-.12l.62,1Z"/>
      <path class="cls-56" d="M271,361c-2.62,4.05-5.12,8.3-7.5,12.5l-1.36,1h-100.52l-.62-1c1.68-4.26,3.64-8.33,5.5-12.5h104.5Z"/>
      <path class="cls-44" d="M227,517c.09,4.39.22,9.64.5,14l-.35,1h-91.53l-.62-1c-.19-4.64.05-9.35,0-14l.35-1h91.04l.61,1Z"/>
      <path class="cls-73" d="M863,649.5c-1.64,4.14-3.19,8.36-5,12.5l-.96,1h-102.42l-.62-1c2.29-3.69,4.81-8.56,7-12.5h102Z"/>
      <path class="cls-73" d="M263,649.5c2.36,4.18,4.92,8.45,7.5,12.5l-.35,1h-103.2l-.95-1c-1.82-4.14-3.35-8.3-5-12.5h102Z"/>
      <path class="cls-44" d="M889,517c-.06,4.65.18,9.36,0,14l-.35,1h-91.53l-.62-1c.28-4.49.45-9.5.5-14l.35-1h91.04l.61,1Z"/>
      <path class="cls-61" d="M250,623.5c1.78,4.13,4.01,8.98,6,13h-100c-1.5-4.3-2.67-8.73-4-13l.35-1h96.7l.96,1Z"/>
      <path class="cls-40" d="M838.5,700.5c-2.43,4.23-4.88,8.38-7.5,12.5l-.95.72c-32.57-.04-65.14-.11-97.7-.21l-.35-.5c.02-4.16-.06-8.34,0-12.5h106.5Z"/>
      <path class="cls-44" d="M618.5,517c0,4.66,0,9.34,0,14l-.35,1h-90.04l-.61-1c0-4.66,0-9.34,0-14l.35-1h90.04l.61,1Z"/>
      <path class="cls-50" d="M618.5,597.5v14h-91c0-4.63.5-9.55.5-14h90.5Z"/>
      <path class="cls-6" d="M245,610.5c1.63,4.32,3.17,8.76,5,13h-98c-1.38-4.44-2.73-8.41-4-13h97Z"/>
      <path class="cls-47" d="M263.5,373.5c-2.33,4.09-4.39,8.29-6.5,12.5h-100.5c1.47-4.18,2.88-8.38,4.5-12.5h102.5Z"/>
      <path class="cls-61" d="M872.5,623.5c-1.37,4.4-2.95,8.67-4.5,13h-44.5l-54.66-.5-.34-.5c1.78-3.61,3.9-8.3,5.5-12l.96-1h96.92l.62,1Z"/>
      <path class="cls-48" d="M231,558c.77,4.52,1.54,9.02,2.5,13.5h-94c-.7-4.51-1.47-8.96-2-13.5l.35-1h92.53l.62,1Z"/>
      <path class="cls-48" d="M886.5,558c-.56,4.49-1.29,9.03-2,13.5l-.35,1h-93.03l-.62-1c.96-4.43,2.23-9.07,3-13.5l.35-1h92.04l.61,1Z"/>
      <path class="cls-57" d="M245.5,411.5c-1.6,4.21-3.11,8.71-4.5,13l-.62.95c-31.59.06-63.17.07-94.76.05l-.62-1c1.04-4.38,2.31-8.67,3.5-13l.62-1h95.77l.62,1Z"/>
      <path class="cls-28" d="M822.5,298.5c2.87,4.15,5.81,8.22,8.5,12.5h-107c1.59-4.18,3.41-8.33,5-12.5l.95-1c30.39-.01,60.78,0,91.18.02l1.36.98Z"/>
      <path class="cls-43" d="M229,544.5c.53,4.58,1.23,8.97,2,13.5h-93.5c-.52-4.46-1.13-9.03-1.5-13.5l.35-1h92.04l.61,1Z"/>
      <path class="cls-71" d="M227.5,531c.29,4.48.98,9.04,1.5,13.5h-93c-.36-4.43-.82-9.07-1-13.5h92.5Z"/>
      <path class="cls-45" d="M887.5,476.5c.43,4.55.75,8.95,1,13.5l-.35,1h-91.53l-.62-1c-.32-4.48-.45-9.04-1-13.5l.35-1h91.53l.62,1Z"/>
      <path class="cls-71" d="M889,531c-.17,4.31-.63,9.15-1,13.5l-.35,1h-91.53l-.62-1c.47-4.24.73-9.2,1-13.5h92.5Z"/>
      <path class="cls-45" d="M888.5,490c.25,4.52.42,8.94.5,13.5l-.35,1h-91.53l-.62-1c-.14-4.66-.17-8.84-.5-13.5h92.5Z"/>
      <path class="cls-17" d="M889,503.5c.08,4.51.05,8.98,0,13.5h-92c.05-4.58-.36-9.08-.5-13.5h92.5Z"/>
      <path class="cls-27" d="M241,424.5c-1.38,4.27-2.83,8.68-4,13l-.62,1h-93.76l-.62-1c.87-4.31,1.98-8.71,3-13h96Z"/>
      <path class="cls-27" d="M879,424.5c1,4.34,1.63,8.65,2.5,13l-.35,1h-93.54l-.62-1c-1.18-4.39-2.65-8.67-4-13h96Z"/>
      <path class="cls-9" d="M882.5,584.5c-.82,4.31-2.02,8.7-3,13h-95.5c1.32-4.11,2.41-8.79,3.5-13l.62-1h93.76l.62,1Z"/>
      <path class="cls-30" d="M496.5,870c-.02,5.91.02,11.83,0,17.75-.11,1.4-1.12,1.21-2.24,1.29-7.71.51-18-2.38-26.01-2.04-25.27-3.39-50.15-8.99-74.25-17h102.5Z"/>
      <path class="cls-51" d="M237,437.5c-1.13,4.18-2.04,8.75-3,13l-.62,1h-93.27l-.62-1c.7-4.19,1.65-8.8,2.5-13h95Z"/>
      <path class="cls-17" d="M618.5,503.5c0,4.49,0,9.01,0,13.5h-91v-13.5h91Z"/>
      <path class="cls-72" d="M496.5,372.5c0,4.49,0,9.01,0,13.5l-.35,1h-90.04l-.61-1c0-4.49,0-9.01,0-13.5h91Z"/>
      <path class="cls-22" d="M618.5,463.5c0,4.49,0,9.01,0,13.5h-91c0-4.49,0-9.01,0-13.5l.35-1h90.04l.61,1Z"/>
      <path class="cls-71" d="M618.5,531c0,4.49,0,9.01,0,13.5,0,.39-.1,1-.35,1-28.28.33-57.51.55-85.9,0-2.28.38-3.86.05-4.76-1,0-4.49,0-9.01,0-13.5h91Z"/>
      <path class="cls-9" d="M884.5,571.5c-.68,4.29-1.19,8.75-2,13h-95c1.1-4.26,2.07-8.69,3-13h94Z"/>
      <path class="cls-51" d="M881.5,437.5c.85,4.28,1.77,8.61,2.5,13l-.35,1h-92.53l-.62-1c-.95-4.27-2.35-8.75-3.5-13h94.5Z"/>
      <path class="cls-14" d="M250.5,399c-1.77,4.04-3.43,8.37-5,12.5h-97c1.15-4.18,2.21-8.36,3.5-12.5h98.5Z"/>
      <path class="cls-22" d="M234,450.5c-.94,4.15-2.27,8.91-3,13h-93c.54-4.29.79-8.73,1.5-13h94.5Z"/>
      <path class="cls-3" d="M884,450.5c.73,4.36,1.42,8.61,2,13l-.35,1h-92.04l-.61-1c-.74-4.23-1.57-8.81-2.5-13h93.5Z"/>
      <path class="cls-35" d="M372.5,265.5c-4.44,2.47-9.26,5.32-13.5,8h-138.5c2.34-2.85,4.58-5.71,7-8.5l1.87-.99c47.52.16,95.03.33,142.51.49l.62,1Z"/>
      <path class="cls-22" d="M886,463.5c.58,4.37,1.08,8.59,1.5,13h-92.5c-.53-4.26-1.26-8.76-2-13h93Z"/>
      <path class="cls-30" d="M618.5,870c-.06,1.11.22,3.38-.83,4.04-29.1,8.29-59.01,13.82-89.36,14.99-1.39-.38-.33-16.67-.31-19.03h90.5Z"/>
      <path class="cls-75" d="M615,149l2.54.84c1.42,4.07,2.9,8.15,4.46,12.16-30.68.45-63.14.58-94.15.5-.12,0-.23-.22-.35-.5.01-4.24-.12-8.85,0-13l.61-1h80.03l6.86,1Z"/>
      <path class="cls-22" d="M618.5,450.5c0,4.33,0,8.67,0,13h-91v-13l.35-1h90.04l.61,1Z"/>
      <path class="cls-68" d="M618.5,789.5c0,4.33,0,8.67,0,13,0,.39-.1,1-.35,1-28.28.33-57.51.55-85.9,0-2.28.38-3.86.05-4.76-1-.01-4.33.01-8.67,0-13l.35-1h90.04l.61,1Z"/>
      <path class="cls-41" d="M618.5,738.5c0,4.33,0,8.67,0,13l-.35,1h-90.04l-.61-1c0-4.33,0-8.67,0-13l.35-1h90.04l.61,1Z"/>
      <path class="cls-23" d="M496.5,335.5c0,4.33,0,8.67,0,13h-91c0-4.33,0-8.67,0-13l.35-1h90.04l.61,1Z"/>
      <path class="cls-47" d="M496.5,386c0,4.33.02,8.67,0,13h-91c-.02-4.33,0-8.67,0-13h91Z"/>
      <path class="cls-27" d="M618.5,424.5c-.05,4.33.01,8.67,0,13l-.35,1h-90.04l-.61-1v-13h91Z"/>
      <path class="cls-51" d="M618.5,437.5c-.01,4.33,0,8.67,0,13h-91c0-4.33,0-8.67,0-13h91Z"/>
      <path class="cls-26" d="M618.5,662c0,4.33,0,8.67,0,13l-.35,1h-90.04l-.61-1c0-4.32.5-8.98.5-13l.35-1h89.53l.62,1Z"/>
      <path class="cls-17" d="M746,503.5c-1.73,4.52-3.77,8.99-5.5,13.5l-.95,1h-80.6l-.95-1c-1.67-4.39-2.83-9.1-4.5-13.5h92.5Z"/>
      <path class="cls-48" d="M618.5,558.5c0,4.33,0,8.67,0,13h-90.5c0-4.28-.5-8.64-.5-13l.35-1h90.04l.61,1Z"/>
      <path class="cls-55" d="M618.5,802.5c0,4.33,0,8.67,0,13l-.35,1h-89.53l-.62-1c-.01-4.29-.49-8.66-.5-13h91Z"/>
      <path class="cls-16" d="M618.5,764c0,4.33,0,8.67,0,13l-.35,1h-90.04l-.61-1c0-4.37.51-8.63.5-13l.35-1h89.53l.62,1Z"/>
      <path class="cls-6" d="M876,611.5c-1.09,4.06-2.25,7.99-3.5,12h-98.5c1.68-3.88,3.52-8.13,5-12h97Z"/>
      <path class="cls-73" d="M618.5,636.5c0,4.33,0,8.67,0,13l-.35,1h-89.53l-.62-1c0-4.31,0-8.67,0-13h90.5Z"/>
      <path class="cls-64" d="M496.5,738.5c0,4.33,0,8.67,0,13l-.35,1h-89.53l-.62-1c.03-4.33-.01-8.67,0-13l.35-1h89.53l.62,1Z"/>
      <path class="cls-26" d="M496.5,662c0,4.33,0,8.67,0,13l-.35,1h-89.53l-.62-1c0-4.33,0-8.67,0-13l.35-1h89.53l.62,1Z"/>
      <path class="cls-49" d="M618.5,841c-.01,4.33.02,8.67,0,13h-90.5c0-4.33.01-8.67,0-13h90.5Z"/>
      <path class="cls-73" d="M496.5,636.5c0,4.33,0,8.67,0,13l-.35,1h-89.53l-.62-1c0-4.33,0-8.67,0-13h90.5Z"/>
      <path class="cls-17" d="M227,504.5c-.1,4.14-.08,8.36,0,12.5h-92c-.05-4.15-.07-8.35,0-12.5.67-.57,1.89-.74,3.64-.5,29.13-.22,58.97-.16,88.01,0,.12,0,.23.22.35.5Z"/>
      <path class="cls-12" d="M496.5,273.5c0,4.16,0,8.34,0,12.5l-.35,1h-90.04l-.61-1c0-4.16,0-8.34,0-12.5l.35-1h90.04l.61,1Z"/>
      <path class="cls-18" d="M618.5,675c0,4.16,0,8.34,0,12.5h-91c0-4.16,0-8.34,0-12.5h91Z"/>
      <path class="cls-33" d="M496.5,323c0,4.16,0,8.34,0,12.5h-91c0-4.16,0-8.34,0-12.5l.35-1h90.04l.61,1Z"/>
      <path class="cls-28" d="M496.5,286c0,4.16,0,8.34,0,12.5l-.35,1h-90.04l-.61-1c0-4.16,0-8.34,0-12.5h91Z"/>
      <path class="cls-28" d="M496.5,298.5c0,4.16,0,8.34,0,12.5,0,.39-.1,1-.35,1-28.28.33-57.51.55-85.9,0-2.28.38-3.86.05-4.76-1,0-4.16,0-8.34,0-12.5h91Z"/>
      <path class="cls-52" d="M618.5,726c0,4.16,0,8.34,0,12.5h-91c0-4.16,0-8.34,0-12.5l.35-1h90.04l.61,1Z"/>
      <path class="cls-11" d="M618.5,777c0,4.16,0,8.34,0,12.5h-91c-.01-4.17,0-8.35,0-12.5h91Z"/>
      <path class="cls-73" d="M618.5,649.5c0,4.16,0,8.34,0,12.5h-90.5c0-4.06,0-8.42,0-12.5h90.5Z"/>
      <path class="cls-41" d="M618.5,751.5c0,4.16,0,8.34,0,12.5h-90.5c0-3.96-.5-8.3-.5-12.5h91Z"/>
      <path class="cls-73" d="M496.5,649.5c0,4.16,0,8.34,0,12.5h-90.5c0-4.16,0-8.34,0-12.5h90.5Z"/>
      <path class="cls-41" d="M496.5,751.5c0,4.16,0,8.34,0,12.5h-90.5c.07-4.16-.02-8.34,0-12.5h90.5Z"/>
      <path class="cls-52" d="M496.5,726c0,4.16,0,8.34,0,12.5h-90.5c.01-4.16,0-8.34,0-12.5l.35-1h89.53l.62,1Z"/>
      <path class="cls-2" d="M496.5,675c0,4.16,0,8.34,0,12.5h-90.5c0-4.16,0-8.34,0-12.5h90.5Z"/>
      <path class="cls-32" d="M626.5,174.5l-.35,1h-97.53l-.62-1c.02-3.75-.51-7.75-.5-11.5.03-.28.06-.5.09-.5,31.12-.25,63.43-.29,94.41,0,1.53,3.96,2.99,8.02,4.5,12Z"/>
      <path class="cls-32" d="M626.5,174.5c1.39,3.68,3.12,7.31,4.5,11h-103c.02-3.73-.02-7.32,0-11h98.5Z"/>
      <path class="cls-25" d="M496.5,311c0,3.99,0,8.01,0,12h-91c0-3.99,0-8.01,0-12h91Z"/>
      <path class="cls-12" d="M496.5,261.5c0,3.99,0,8.01,0,12h-91c0-3.99.03-8.01,0-12h91Z"/>
      <path class="cls-38" d="M813.5,286c3.1,4.14,6.06,8.25,9,12.5h-93.5c1.52-4,2.92-8.36,4.5-12.5l.96-1c25.9-.05,51.79-.02,77.68.09l1.36.91Z"/>
      <path class="cls-44" d="M740.5,517c-1.76,4.6-3.24,9.39-5,14l-.95,1h-69.68c-.58.04-1.03-.3-1.36-1-1.78-4.68-3.72-9.32-5.5-14h82.5Z"/>
      <path class="cls-74" d="M829,716c-2.22,3.41-4.72,6.77-7,10h-90c0-3.49-.02-7.01,0-10.5-.09-.43,0-.75.35-.75,31.7.14,64.32.3,96.03.49.33,0,.52.34.61.76Z"/>
      <path class="cls-59" d="M848.5,341.5c1.19,2.3,2.37,4.67,3.5,7h-142.5c.89-2.34,2.11-4.66,3-7l.79-.96c44.6-.04,89.21-.06,133.83-.04l1.38,1Z"/>
      <path class="cls-74" d="M618.5,713c0,3.49,0,7.01,0,10.5l-.35,1h-90.04l-.61-1c0-3.49,0-7.01,0-10.5h91Z"/>
      <path class="cls-74" d="M496.5,713c0,3.49,0,7.01,0,10.5l-.35,1h-89.53l-.62-1c0-3.49,0-7.01,0-10.5h90.5Z"/>
      <path class="cls-24" d="M725,558.5c-2.75,7.11-5.68,14.18-8.07,21.43-11.35.99-23.02.63-34.44.32-1.05-.52-7.43-18.97-8.49-21.76l.35-1h50.04l.61,1Z"/>
      <path class="cls-12" d="M804,273.5c3.29,4.08,6.36,8.3,9.5,12.5h-80c1.59-4.19,3.41-8.32,5-12.5l.94-1h62.75l1.81,1Z"/>
      <path class="cls-71" d="M735.5,531c-1.74,4.54-3.78,9-5.5,13.5l-.95,1h-59.6l-.95-1c-1.7-4.48-3.3-9.02-5-13.5h72Z"/>
      <path class="cls-53" d="M875.5,411.5c.19.69.77,1.64,1,2.5h-349v-2.5h348Z"/>
      <path class="cls-11" d="M779.5,777c-9.44,9.61-18.17,17.09-28.5,25.5-.68.5-1.33.82-2.17,1-1.01.21-15.46.24-16.24,0l-.59-1c-.14-8.41.04-16.99,0-25.5l.34-1h46.55l.61,1Z"/>
      <path class="cls-26" d="M270.5,662c1.71,2.68,3.69,5.37,5.5,8h-106.5c-1.22-2.62-2.34-5.35-3.5-8h104.5Z"/>
      <path class="cls-26" d="M858,662c-1.16,2.65-2.28,5.38-3.5,8l-.96.97c-34.81.03-69.62.04-104.43.03l-.62-1c1.64-2.39,4.09-5.72,5.5-8h104Z"/>
      <path class="cls-41" d="M802.5,751.5c-3.6,4.29-7.28,8.37-11,12.5l-1.81,1h-57.08l-.61-1c-.01-4.16,0-8.34,0-12.5h70.5Z"/>
      <path class="cls-8" d="M618.5,815.5c0,2.99,0,6.01,0,9h-90.5c0-2.97,0-6.16,0-9h90.5Z"/>
      <path class="cls-23" d="M845,335.5c1.08,1.99,2.39,3.86,3.5,6h-136c.77-2.02,1.75-4.02,2.5-6h130Z"/>
      <path class="cls-43" d="M730,544.5c-1.76,4.61-3.21,9.37-5,14h-51c-1.79-4.68-3.72-9.32-5.5-14h61.5Z"/>
      <path class="cls-75" d="M615,149h-87.5c.02-.76.49-1.71.52-2.72.06-1.87-.46-10.92.45-11.56,29.15,1.42,58.57,5.72,86.53,14.29Z"/>
      <path class="cls-15" d="M496.5,149h-87.5c20.7-6.18,42.21-10.32,63.75-12.5,3.01-.3,22.19-2.05,23.28-1.28.85.59.45,11.75.47,13.78Z"/>
      <path class="cls-45" d="M754,483c-.9,2.36-2.1,4.63-3,7h-103c-.88-2.32-1.63-4.7-2.5-7h108.5Z"/>
      <path class="cls-50" d="M406,611.5c0-2.66-.22-5.36,0-8h90.5c.01,2.66-.02,5.34,0,8h-90.5Z"/>
      <path class="cls-23" d="M285,341.5c-1.65,2.16-3.41,4.31-5,6.5h-107.5c1.09-2.21,2.38-4.33,3.5-6.5l.96-.96c35.81-.04,71.62-.06,107.42-.04l.62,1Z"/>
      <path class="cls-35" d="M794,261.5c3.42,3.87,6.75,7.98,10,12h-65.5c1.51-3.97,2.98-8.01,4.5-12l.94-1c16.08,0,32.17,0,48.25,0l1.8,1Z"/>
      <path class="cls-16" d="M791.5,764c-3.97,4.4-7.84,8.77-12,13h-47.5c-.02-4.34.01-8.68,0-13h59.5Z"/>
      <path class="cls-43" d="M618.5,551c0,2.49,0,5.01,0,7.5h-91c0-2.49,0-5.01,0-7.5l.35-1h90.04l.61,1Z"/>
      <path class="cls-8" d="M496.5,824.5c0,1.17,0,2.33,0,3.5h-189c-1.77-1.15-3.68-2.26-5.5-3.5h194.5Z"/>
      <path class="cls-23" d="M289.5,335.5c-1.54,1.92-3,4.03-4.5,6h-109c1.02-2,1.93-4,3-6h110.5Z"/>
      <path class="cls-43" d="M887.5,551c-.24,2.29-.71,4.69-1,7h-93c.38-2.21.68-4.74,1-7l.35-1h92.04l.61,1Z"/>
      <path class="cls-43" d="M888,544.5c-.18,2.14-.28,4.39-.5,6.5h-93c.3-2.12.77-4.43,1-6.5h92.5Z"/>
      <path class="cls-43" d="M618.5,544.5c0,2.16,0,4.34,0,6.5h-91c0-2.16,0-4.34,0-6.5h91Z"/>
      <path class="cls-34" d="M781.5,248.5c4.19,4.29,8.52,8.5,12.5,13h-51c1.65-4.33,3.35-8.67,5-13l.75-1c10.16,0,20.33,0,30.49,0l2.26,1Z"/>
      <path class="cls-2" d="M854.5,670c-.79,1.68-1.69,3.34-2.5,5h-107c1.16-1.63,2.37-3.35,3.5-5h106Z"/>
      <path class="cls-35" d="M380,261.5c-2.3,1.18-5.26,2.75-7.5,4l-145-.5c1-1.16,1.98-2.36,3-3.5l1.62-.68c48.45.26,96.93.32,145.46.17l2.43.51Z"/>
      <path class="cls-55" d="M496.5,815.5c0,.67,0,1.33,0,2h-204.5c-.86-.63-1.96-1.22-3-2h207.5Z"/>
      <path class="cls-21" d="M748,248.5c2.95-7.76,5.6-15.71,8.51-23.5.25-.19,4.47,3.27,5,3.74,6.92,6.09,13.56,13.17,19.99,19.76h-33.5Z"/>
      <path class="cls-16" d="M496.5,775.5c0,.5,0,1,0,1.5h-251.5c-.5-.5-1-.99-1.5-1.5h253Z"/>
      <path class="cls-74" d="M618.5,723.5c0,.83,0,1.67,0,2.5h-91c0-.83,0-1.67,0-2.5h91Z"/>
      <path class="cls-74" d="M496.5,723.5c0,.83,0,1.67,0,2.5h-90.5c0-.83,0-1.67,0-2.5h90.5Z"/>
      <path class="cls-16" d="M381.5,764l3,1.5h-150.5c-.44-.47-.97-.92-1.5-1.5h149Z"/>
      <path class="cls-55" d="M496.5,802.5c0,.33,0,.67,0,1l-222,.5c-.67-.55-1.09-1.16-1.5-1.5h223.5Z"/>
      <path class="cls-74" d="M311.5,713c1.11.2,1.41,1.04,2,1.5h-119.5c-.33-.5-.68-.99-1-1.5h118.5Z"/>
      <path class="cls-34" d="M380,261.5h-149.5c.54-.61,1.08-1.04,1.5-1.5.52.83,1.9.5,2.74.51,47.68.5,95.34-.36,143.03-.04l2.22,1.03Z"/>
      <path class="cls-74" d="M830,714.5c-.33.5-.67,1-1,1.5l-97-.5c0-.5,0-1,0-1.5l.09-.5c32.53.04,65.05.15,97.56.33l.35.67Z"/>
      <path class="cls-55" d="M751,802.5c-.32.26-.65,1-1.25,1.49-5.54,4.46-11.27,8.79-17,13.02-.53-4.83-.68-9.66-.76-14.5h19Z"/>
      <path class="cls-41" d="M360,751.5l-2.72,1.03-135.28-.03c-.21-.25-.29-.75-.5-1h138.5Z"/>
      <path class="cls-34" d="M496.5,248.5c0,.17,0,.33,0,.5h-254c.17-.17.33-.33.5-.5h253.5Z"/>
      <path class="cls-40" d="M831,713c-.32.51-.67,1-1,1.5l-98-.5c0-.33,0-.67,0-1h99Z"/>
      <path class="cls-69" d="M622,162c.06.14-.06.35,0,.5l-94.5.5c0-.33,0-.67,0-1h94.5Z"/>
      <path class="cls-17" d="M227,503.5c-.01.3,0,.65,0,1h-92c0-.33,0-.67,0-1h92Z"/>
      <path class="cls-61" d="M823.5,636.5h-56c.3-.59.95-.9,1-1l55,1Z"/>
    </g>
  </g>
</svg>