<?xml version="1.0" encoding="UTF-8"?>
<svg id="Layer_1" data-name="Layer 1" xmlns="http://www.w3.org/2000/svg" viewBox="0 0 1024 1024">
  <path d="M811.29,141.71c180.47,145.78,230.18,400.82,115.3,604.13-119.8,212.01-384.08,302.62-608.42,200.75C96.8,846.07-16.86,598.61,59.14,364.39,116.08,188.94,277.03,55.94,461.76,38.01c128.7-12.5,249.52,22.91,349.53,103.7ZM778.81,202.69c-82.9-70.6-187.74-107.38-297.56-98.69-224.7,17.79-395.17,214.94-376.75,440.74,16.61,203.67,184.61,365.91,388.73,375.77,167.8,8.11,325.61-91.65,392.86-244.18,72.23-163.83,28.43-358.07-107.27-473.64Z"/>
  <path d="M618.5,872.75c-.08.43-.63,1.26-1.13,1.41-29.02,8.17-58.81,13.73-89.06,14.87-1.47-.4-.31-14.5-.29-16.75.32-36.11.05-71.99,0-108.05-.24-200.19-1.18-401.32-.57-601.47.03-9.26.56-18.48.76-27.78.36-.52.96-.5,1.51-.5,3.87.04,9.01.69,13.02,1.03,17.73,1.5,35.43,4.32,52.76,8.24,7.36,1.67,14.74,3.44,21.88,5.87,28.03,73.8,54.35,148.28,82.87,221.88l1.25-.32,55-146.17c.25-.19,4.47,3.27,5,3.74,79.25,69.76,126.94,173.51,127.8,279.59,1.01,123.53-55.24,230.73-151.58,305.15-.59.45-4.92,3.88-5.23,3.51-.33-8.78-.45-17.5-.52-26.22-.25-32.82.21-65.67.04-98.51,8.37-11.77,17.45-23.13,24.88-35.62,43.54-73.18,51.52-158.68,24.12-239.43-.27-.81-.61-1.94-1.52-2.22l-62.57,164.93c-11.11,1.12-22.46.34-33.67.55l-1.06-.44c-6.78-16.73-12.77-33.89-19.2-50.8-7.87-20.72-16.03-41.37-23.88-62.12-5.95-15.72-11.29-33.39-17.88-48.62-.53-1.22-1.42-2.22-1.75-3.51-.2-.14-.99.66-.99.75v457Z"/>
  <path d="M496.5,417.5h-91v-167c-.7-.09-1.34.04-2.01.24-3.98,1.16-11.84,5.13-15.92,7.08-115.64,55.49-180.98,183.27-154.84,310.2,19.11,92.78,84.67,170.71,172.09,206.42,1.18.33.7-2.09,1.1-2.76l.08-168.18h90.5v284.75c0,.88-2.59.8-3.27.78-152.78-6.59-290.47-112.83-338.74-256.77-61.78-184.22,25.25-379.86,198.33-462.19,41.02-19.51,91.81-33.43,137.43-35.07,1.1-.04,6.24-.35,6.24.75v281.75Z"/>
</svg>